<?xml version="1.0" standalone="no"?>
<!DOCTYPE svg PUBLIC "-//W3C//DTD SVG 20010904//EN"
 "http://www.w3.org/TR/2001/REC-SVG-20010904/DTD/svg10.dtd">
<svg version="1.0" xmlns="http://www.w3.org/2000/svg"
 width="542.000000pt" height="386.000000pt" viewBox="0 0 542.000000 386.000000"
 preserveAspectRatio="xMidYMid meet">
<metadata>
Created by potrace 1.16, written by Peter Selinger 2001-2019
</metadata>
<g transform="translate(0.000000,386.000000) scale(0.100000,-0.100000)"
fill="#000000" stroke="none">
<path d="M2784 3681 c-192 -52 -435 -227 -527 -378 -51 -84 -71 -153 -64 -220
7 -69 47 -152 93 -192 45 -40 64 -40 64 0 0 82 60 241 109 292 5 5 23 -15 41
-42 42 -67 129 -145 200 -181 79 -40 198 -70 305 -77 l90 -6 -66 51 c-69 53
-173 170 -183 205 -4 16 3 13 32 -15 63 -60 125 -105 192 -141 73 -40 186 -77
234 -77 43 0 50 -8 66 -65 8 -28 29 -65 49 -88 20 -22 43 -58 51 -81 9 -23 26
-46 40 -53 24 -12 25 -11 37 35 22 85 17 145 -21 220 -51 103 -60 136 -44 169
23 48 42 40 95 -39 l48 -73 3 44 c2 28 -7 75 -27 136 -22 66 -28 103 -24 129
6 40 40 73 57 56 15 -15 26 -12 26 6 0 9 9 18 20 21 19 5 19 7 -8 56 -48 91
-128 160 -254 221 -159 78 -240 97 -418 102 -121 3 -157 1 -216 -15z"/>
<path d="M3845 2115 c-50 -47 -114 -104 -143 -126 -61 -48 -63 -47 -117 41
l-35 58 -78 7 c-42 4 -85 9 -95 12 -13 3 -20 -2 -24 -16 -3 -11 -10 -18 -16
-14 -6 3 -7 1 -3 -6 15 -23 -89 -176 -171 -253 -69 -64 -125 -90 -203 -95
-116 -7 -170 40 -179 157 l-6 69 -56 34 c-55 33 -60 34 -215 43 -275 16 -417
12 -509 -14 -121 -35 -244 -98 -405 -207 -366 -249 -354 -242 -424 -258 -76
-17 -104 -37 -261 -187 -55 -53 -118 -109 -140 -125 -22 -17 -42 -32 -45 -35
-3 -3 -23 -13 -45 -24 -74 -34 -202 -123 -275 -192 -90 -85 -147 -159 -203
-261 -40 -74 -42 -82 -42 -163 0 -70 4 -93 24 -132 77 -150 193 -200 506 -218
188 -11 295 -6 369 17 32 10 64 13 98 9 46 -6 50 -5 44 11 -31 80 -48 194 -43
293 8 152 18 177 87 207 30 14 69 33 86 44 l31 19 -48 152 c-27 83 -49 157
-49 163 0 6 10 21 23 33 23 22 30 22 304 22 155 0 289 -3 297 -6 28 -11 36
-35 256 -724 l68 -215 755 -3 754 -2 6 112 c6 107 36 431 56 620 5 48 16 98
23 112 l13 25 160 -136 c155 -132 216 -192 483 -471 211 -220 270 -252 470
-252 125 0 129 1 175 30 91 57 138 157 158 338 18 162 -14 329 -82 431 -21 32
-144 159 -281 291 -295 284 -389 378 -540 541 -85 92 -131 133 -174 156 -33
18 -90 64 -129 102 -50 51 -77 71 -95 71 -18 0 -51 -24 -115 -85z"/>
</g>
</svg>
