<?xml version="1.0" standalone="no"?>
<!DOCTYPE svg PUBLIC "-//W3C//DTD SVG 20010904//EN"
 "http://www.w3.org/TR/2001/REC-SVG-20010904/DTD/svg10.dtd">
<svg version="1.0" xmlns="http://www.w3.org/2000/svg"
 width="539.000000pt" height="438.000000pt" viewBox="0 0 539.000000 438.000000"
 preserveAspectRatio="xMidYMid meet">
<metadata>
Created by potrace 1.16, written by Peter Selinger 2001-2019
</metadata>
<g transform="translate(0.000000,438.000000) scale(0.100000,-0.100000)"
fill="#000000" stroke="none">
<path d="M3085 3895 c-174 -50 -584 -181 -622 -198 -25 -11 -26 -12 -20 -102
7 -102 27 -180 58 -219 19 -24 26 -27 58 -21 59 11 65 23 40 88 -15 41 -27 57
-42 59 -27 4 -47 42 -47 89 0 46 17 61 70 57 33 -1 47 -8 66 -33 l24 -30 0 27
c0 19 14 43 45 75 25 25 45 50 45 54 0 3 28 1 63 -6 294 -62 428 -24 426 120
-1 90 5 88 -164 40z"/>
<path d="M2236 2297 c-11 -41 -6 -95 15 -162 15 -51 31 -77 67 -114 47 -48 74
-60 202 -90 42 -9 40 -10 -24 -5 -84 7 -129 22 -208 71 l-61 38 -381 3 c-406
4 -467 -1 -504 -41 -11 -12 -34 -57 -50 -99 l-30 -78 739 0 739 0 -10 26 c-6
14 -15 34 -20 45 -10 18 -6 19 85 19 52 0 95 -3 95 -7 0 -11 91 -668 96 -690
4 -19 11 -23 45 -23 22 0 54 6 72 13 l32 14 -7 189 c-4 104 -11 299 -16 434
-9 270 -13 287 -75 334 -100 77 -282 114 -647 132 -74 4 -138 8 -141 10 -4 2
-9 -6 -13 -19z"/>
<path d="M4145 1520 c-135 -22 -227 -69 -325 -169 -72 -73 -129 -164 -170
-271 -8 -19 -20 -45 -28 -58 -14 -21 -16 -22 -33 -6 -18 17 -19 14 -19 -65 0
-243 177 -478 427 -566 l68 -25 -1110 1 c-610 1 -1101 4 -1090 6 47 12 143 58
194 93 130 89 242 250 266 383 l8 39 -157 -3 -156 -3 -21 -41 c-61 -118 -206
-196 -334 -180 -109 13 -227 96 -272 191 l-17 35 -153 -2 c-113 -2 -153 -6
-153 -15 0 -7 9 -40 19 -73 58 -187 241 -365 427 -416 43 -12 0 -13 -375 -14
l-425 -1 51 25 c54 27 121 92 147 144 16 30 16 31 -7 31 -34 0 -139 -29 -164
-46 -29 -19 -29 -5 1 54 46 93 109 313 93 329 -11 11 -86 -46 -124 -95 -21
-26 -47 -67 -57 -90 -10 -23 -22 -42 -25 -42 -3 0 -14 33 -23 74 -21 95 -61
194 -106 271 l-36 60 -9 -40 c-9 -43 -3 -264 9 -304 l7 -25 -29 21 c-67 48
-204 97 -221 79 -9 -9 80 -126 167 -218 45 -49 80 -88 78 -88 -2 0 -22 9 -44
19 -56 27 -160 44 -208 34 l-39 -8 52 -57 c35 -38 75 -69 121 -92 45 -22 63
-36 52 -38 -14 -4 -16 -15 -14 -61 l4 -57 2366 2 2367 3 0 55 0 55 -390 5
c-228 3 -375 8 -353 13 61 13 189 83 250 137 77 69 151 182 184 283 23 69 28
100 28 197 0 125 -14 192 -62 286 -28 54 -84 99 -212 171 -115 65 -286 94
-425 73z m208 -223 c97 -48 169 -145 185 -251 24 -150 -49 -291 -186 -358 -59
-29 -76 -33 -147 -33 -65 1 -91 5 -137 27 -68 32 -137 99 -168 165 -34 70 -39
190 -11 263 35 94 112 168 211 204 68 25 183 17 253 -17z"/>
<path d="M4125 1136 c-41 -18 -83 -69 -91 -111 -27 -145 137 -247 254 -158 63
48 81 142 39 204 -48 72 -128 97 -202 65z m120 -92 c33 -36 32 -69 -5 -106
-25 -24 -36 -29 -58 -23 -34 8 -59 33 -67 67 -6 22 -1 33 23 58 38 38 75 39
107 4z"/>
<path d="M3095 1154 c-11 -8 -33 -14 -50 -12 -29 3 -30 2 -28 -41 1 -24 7 -49
12 -54 12 -12 213 -15 254 -4 24 7 27 10 16 23 -10 13 -170 105 -180 104 -2 0
-13 -7 -24 -16z"/>
</g>
</svg>
